<svg width="16" height="18" viewBox="0 0 16 18" fill="none" xmlns="http://www.w3.org/2000/svg">
<path d="M10.8958 16.5V13.5C11.0002 12.5605 10.7308 11.6176 10.1458 10.875C12.3958 10.875 14.6458 9.375 14.6458 6.75C14.7058 5.8125 14.4433 4.89 13.8958 4.125C14.1058 3.2625 14.1058 2.3625 13.8958 1.5C13.8958 1.5 13.1458 1.5 11.6458 2.625C9.66581 2.25 7.62581 2.25 5.64581 2.625C4.14581 1.5 3.39581 1.5 3.39581 1.5C3.17081 2.3625 3.17081 3.2625 3.39581 4.125C2.84972 4.88691 2.58467 5.81459 2.64581 6.75C2.64581 9.375 4.89581 10.875 7.14581 10.875C6.85331 11.2425 6.63581 11.6625 6.50831 12.1125C6.38081 12.5625 6.34331 13.035 6.39581 13.5M6.39581 13.5V16.5M6.39581 13.5C3.01331 15 2.64581 12 1.14581 12" stroke="black" stroke-width="1.125" stroke-linecap="round" stroke-linejoin="round"/>
</svg>
