<svg width="15" height="18" viewBox="0 0 15 18" fill="none" xmlns="http://www.w3.org/2000/svg">
<path d="M13.5 7.50009C13.5 11.2448 9.34575 15.1448 7.95075 16.3493C7.82079 16.4471 7.6626 16.4999 7.5 16.4999C7.3374 16.4999 7.17921 16.4471 7.04925 16.3493C5.65425 15.1448 1.5 11.2448 1.5 7.50009C1.5 5.90879 2.13214 4.38267 3.25736 3.25745C4.38258 2.13223 5.9087 1.50009 7.5 1.50009C9.0913 1.50009 10.6174 2.13223 11.7426 3.25745C12.8679 4.38267 13.5 5.90879 13.5 7.50009Z" stroke="black" stroke-width="1.125" stroke-linecap="round" stroke-linejoin="round"/>
<path d="M7.5 9.75009C8.74264 9.75009 9.75 8.74273 9.75 7.50009C9.75 6.25745 8.74264 5.25009 7.5 5.25009C6.25736 5.25009 5.25 6.25745 5.25 7.50009C5.25 8.74273 6.25736 9.75009 7.5 9.75009Z" stroke="black" stroke-width="1.125" stroke-linecap="round" stroke-linejoin="round"/>
</svg>
