<svg width="17" height="18" viewBox="0 0 17 18" fill="none" xmlns="http://www.w3.org/2000/svg">
<path d="M15.7578 12.717V14.967C15.7587 15.1759 15.7159 15.3826 15.6322 15.574C15.5485 15.7654 15.4258 15.9372 15.2719 16.0784C15.118 16.2196 14.9363 16.3271 14.7384 16.394C14.5405 16.4609 14.3309 16.4858 14.1228 16.467C11.8149 16.2162 9.59807 15.4276 7.65032 14.1645C5.83819 13.013 4.30183 11.4766 3.15032 9.66449C1.88281 7.70789 1.09401 5.48024 0.847823 3.16199C0.829081 2.95459 0.85373 2.74556 0.920199 2.54821C0.986668 2.35086 1.0935 2.16951 1.2339 2.01571C1.37429 1.8619 1.54518 1.73902 1.73567 1.65488C1.92616 1.57074 2.13208 1.52719 2.34032 1.52699H4.59032C4.9543 1.52341 5.30717 1.6523 5.58314 1.88964C5.85912 2.12698 6.03938 2.45657 6.09032 2.81699C6.18529 3.53704 6.36141 4.24403 6.61532 4.92449C6.71623 5.19293 6.73807 5.48468 6.67825 5.76515C6.61844 6.04562 6.47947 6.30307 6.27782 6.50699L5.32532 7.45949C6.39299 9.33715 7.94766 10.8918 9.82532 11.9595L10.7778 11.007C10.9817 10.8053 11.2392 10.6664 11.5197 10.6066C11.8001 10.5467 12.0919 10.5686 12.3603 10.6695C13.0408 10.9234 13.7478 11.0995 14.4678 11.1945C14.8321 11.2459 15.1649 11.4294 15.4027 11.7101C15.6406 11.9908 15.767 12.3492 15.7578 12.717Z" stroke="black" stroke-width="1.125" stroke-linecap="round" stroke-linejoin="round"/>
</svg>
