<svg width="17" height="14" viewBox="0 0 17 14" fill="none" xmlns="http://www.w3.org/2000/svg">
<path d="M12.378 13.7357C12.1048 13.7355 11.8404 13.6392 11.631 13.4637L8.78135 11.089L7.09368 12.7763C7.02376 12.8462 6.9347 12.8937 6.83777 12.913C6.74084 12.9322 6.64037 12.9223 6.54907 12.8845C6.45776 12.8467 6.3797 12.7827 6.32475 12.7006C6.26981 12.6184 6.24043 12.5218 6.24035 12.423V9.07234C6.24032 9.00667 6.25323 8.94163 6.27833 8.88095C6.30344 8.82027 6.34026 8.76512 6.38668 8.71867L8.84735 6.25801L5.00701 8.81801C4.93786 8.86411 4.8583 8.89224 4.77554 8.89986C4.69278 8.90749 4.60943 8.89436 4.53301 8.86167L1.37601 7.50867C1.1613 7.41669 0.979028 7.26253 0.852678 7.06606C0.726328 6.86959 0.66168 6.6398 0.667058 6.40627C0.672437 6.17274 0.747595 5.94617 0.882856 5.75572C1.01812 5.56527 1.20729 5.41968 1.42601 5.33767L14.7517 0.34034C14.9514 0.265524 15.1678 0.246724 15.3775 0.285975C15.5872 0.325225 15.7821 0.421033 15.9413 0.563042C16.1005 0.705051 16.2178 0.887861 16.2806 1.09171C16.3434 1.29557 16.3493 1.51271 16.2977 1.71967L13.5153 12.8487C13.4679 13.0411 13.372 13.2181 13.2369 13.3631C13.1018 13.5081 12.9319 13.6161 12.7433 13.677C12.6254 13.7156 12.5021 13.7354 12.378 13.7357ZM8.75068 9.91234C8.86763 9.91239 8.98086 9.95344 9.07068 10.0283L12.2707 12.695C12.2927 12.7137 12.3192 12.7263 12.3476 12.7318C12.376 12.7373 12.4053 12.7354 12.4327 12.7263C12.4603 12.7177 12.4851 12.702 12.5048 12.6809C12.5245 12.6597 12.5384 12.6338 12.545 12.6057L15.327 1.47701C15.3344 1.44699 15.3335 1.41553 15.3243 1.38601C15.3152 1.35649 15.2982 1.33002 15.2751 1.30945C15.252 1.28888 15.2238 1.27499 15.1934 1.26927C15.163 1.26356 15.1316 1.26623 15.1027 1.27701L1.77701 6.27367C1.7452 6.28565 1.7177 6.30687 1.69805 6.33461C1.6784 6.36234 1.6675 6.39532 1.66675 6.42931C1.66599 6.46329 1.67543 6.49672 1.69383 6.5253C1.71223 6.55388 1.73876 6.5763 1.77001 6.58967L4.67768 7.83567L11.0863 3.56334C11.224 3.46921 11.392 3.43011 11.5571 3.45377C11.7222 3.47742 11.8725 3.5621 11.9782 3.6911C12.0839 3.8201 12.1375 3.98405 12.1282 4.15058C12.119 4.31712 12.0477 4.47414 11.9283 4.59067L7.24035 9.27934V11.2157L8.39701 10.059C8.44344 10.0125 8.49857 9.97565 8.55925 9.95048C8.61994 9.92531 8.68499 9.91235 8.75068 9.91234Z" fill="black"/>
<path d="M1.60167 6.30567C1.48522 6.30479 1.37274 6.26329 1.28362 6.18833C1.19451 6.11337 1.13435 6.00966 1.11353 5.89509C1.09271 5.78051 1.11253 5.66227 1.16957 5.56075C1.22662 5.45923 1.31731 5.3808 1.426 5.33901L14.7517 0.34034C14.9514 0.265524 15.1678 0.246724 15.3775 0.285975C15.5872 0.325225 15.7821 0.421033 15.9413 0.563042C16.1005 0.705051 16.2178 0.887861 16.2806 1.09171C16.3434 1.29557 16.3493 1.51271 16.2977 1.71967C16.2656 1.84835 16.1837 1.959 16.07 2.0273C15.9563 2.09559 15.8202 2.11593 15.6915 2.08384C15.5628 2.05175 15.4522 1.96986 15.3839 1.85618C15.3156 1.7425 15.2952 1.60635 15.3273 1.47767C15.3346 1.44768 15.3336 1.41627 15.3244 1.38681C15.3152 1.35735 15.2982 1.33093 15.2751 1.3104C15.2521 1.28986 15.2239 1.27596 15.1936 1.2702C15.1633 1.26444 15.132 1.26702 15.103 1.27767L1.777 6.27367C1.72099 6.29492 1.66157 6.30577 1.60167 6.30567Z" fill="black"/>
</svg>
