<svg width="17" height="18" viewBox="0 0 17 18" fill="none" xmlns="http://www.w3.org/2000/svg">
<path d="M15.6 9C15.6 13.1421 12.2421 16.5 8.09998 16.5M15.6 9C15.6 4.85786 12.2421 1.5 8.09998 1.5M15.6 9H0.599976M8.09998 16.5C3.95784 16.5 0.599976 13.1421 0.599976 9M8.09998 16.5C6.17415 14.4779 5.09998 11.7924 5.09998 9C5.09998 6.20756 6.17415 3.52212 8.09998 1.5M8.09998 16.5C10.0258 14.4779 11.1 11.7924 11.1 9C11.1 6.20756 10.0258 3.52212 8.09998 1.5M0.599976 9C0.599976 4.85786 3.95784 1.5 8.09998 1.5" stroke="black" stroke-width="1.125" stroke-linecap="round" stroke-linejoin="round"/>
</svg>
